<svg width="371" height="58" viewBox="0 0 371 58" fill="none" xmlns="http://www.w3.org/2000/svg">
<path d="M21.9716 21.1307C21.8352 19.7557 21.25 18.6875 20.2159 17.9261C19.1818 17.1648 17.7784 16.7841 16.0057 16.7841C14.8011 16.7841 13.7841 16.9545 12.9545 17.2955C12.125 17.625 11.4886 18.0852 11.0455 18.6761C10.6136 19.267 10.3977 19.9375 10.3977 20.6875C10.375 21.3125 10.5057 21.858 10.7898 22.3239C11.0852 22.7898 11.4886 23.1932 12 23.5341C12.5114 23.8636 13.1023 24.1534 13.7727 24.4034C14.4432 24.642 15.1591 24.8466 15.9205 25.017L19.0568 25.767C20.5795 26.108 21.9773 26.5625 23.25 27.1307C24.5227 27.6989 25.625 28.3977 26.5568 29.2273C27.4886 30.0568 28.2102 31.0341 28.7216 32.1591C29.2443 33.2841 29.5114 34.5739 29.5227 36.0284C29.5114 38.1648 28.9659 40.017 27.8864 41.5852C26.8182 43.142 25.2727 44.3523 23.25 45.2159C21.2386 46.0682 18.8125 46.4943 15.9716 46.4943C13.1534 46.4943 10.6989 46.0625 8.60795 45.1989C6.52841 44.3352 4.90341 43.0568 3.73295 41.3636C2.57386 39.6591 1.96591 37.5511 1.90909 35.0398H9.05114C9.13068 36.2102 9.46591 37.1875 10.0568 37.9716C10.6591 38.7443 11.4602 39.3295 12.4602 39.7273C13.4716 40.1136 14.6136 40.3068 15.8864 40.3068C17.1364 40.3068 18.2216 40.125 19.142 39.7614C20.0739 39.3977 20.7955 38.892 21.3068 38.2443C21.8182 37.5966 22.0739 36.8523 22.0739 36.0114C22.0739 35.2273 21.8409 34.5682 21.375 34.0341C20.9205 33.5 20.25 33.0455 19.3636 32.6705C18.4886 32.2955 17.4148 31.9545 16.142 31.6477L12.3409 30.6932C9.39773 29.9773 7.07386 28.858 5.36932 27.3352C3.66477 25.8125 2.81818 23.7614 2.82955 21.1818C2.81818 19.0682 3.38068 17.2216 4.51705 15.642C5.66477 14.0625 7.23864 12.8295 9.23864 11.9432C11.2386 11.0568 13.5114 10.6136 16.0568 10.6136C18.6477 10.6136 20.9091 11.0568 22.8409 11.9432C24.7841 12.8295 26.2955 14.0625 27.375 15.642C28.4545 17.2216 29.0114 19.0511 29.0455 21.1307H21.9716ZM33.1577 17.1761V11.0909H61.8281V17.1761H51.1406V46H43.8452V17.1761H33.1577Z" fill="white"/>
<path d="M60.0341 46V11.0909H83.5568V17.1761H67.4148V25.4943H82.3466V31.5795H67.4148V39.9148H83.625V46H60.0341ZM95.4418 46H87.5327L99.5838 11.0909H109.095L121.129 46H113.22L104.476 19.0682H104.203L95.4418 46ZM94.9474 32.2784H113.629V38.0398H94.9474V32.2784ZM125.331 46V11.0909H132.712V39.9148H147.678V46H125.331ZM146.876 17.1761V11.0909H175.547V17.1761H164.859V46H157.564V17.1761H146.876Z" fill="white"/>
<path d="M173.034 46V11.0909H180.415V25.4943H195.398V11.0909H202.761V46H195.398V31.5795H180.415V46H173.034Z" fill="white"/>
<path d="M216.227 11.0909H221.273L233.136 40.0682H233.545L245.409 11.0909H250.455V46H246.5V19.4773H246.159L235.25 46H231.432L220.523 19.4773H220.182V46H216.227V11.0909ZM260.362 46H255.93L268.749 11.0909H273.112L285.93 46H281.499L271.067 16.6136H270.794L260.362 46ZM261.999 32.3636H279.862V36.1136H261.999V32.3636ZM291.368 46V11.0909H303.163C305.891 11.0909 308.129 11.5568 309.879 12.4886C311.629 13.4091 312.925 14.6761 313.766 16.2898C314.607 17.9034 315.027 19.7386 315.027 21.7955C315.027 23.8523 314.607 25.6761 313.766 27.267C312.925 28.858 311.635 30.108 309.896 31.017C308.158 31.9148 305.936 32.3636 303.232 32.3636H293.686V28.5455H303.095C304.959 28.5455 306.459 28.2727 307.595 27.7273C308.743 27.1818 309.572 26.4091 310.084 25.4091C310.607 24.3977 310.868 23.1932 310.868 21.7955C310.868 20.3977 310.607 19.1761 310.084 18.1307C309.561 17.0852 308.726 16.2784 307.578 15.7102C306.43 15.1307 304.913 14.8409 303.027 14.8409H295.595V46H291.368ZM307.8 30.3182L316.391 46H311.482L303.027 30.3182H307.8ZM322.071 46V11.0909H326.298V28.4091H326.707L342.389 11.0909H347.912L333.253 26.8409L347.912 46H342.798L330.662 29.7727L326.298 34.6818V46H322.071Z" fill="white"/>
<circle cx="363" cy="37" r="8" fill="#FF0004"/>
<line x1="327" y1="39.5" x2="350" y2="39.5" stroke="#FF5353" stroke-width="3"/>
</svg>
