<svg width="1087" height="630" viewBox="0 0 1087 630" fill="none" xmlns="http://www.w3.org/2000/svg">
<rect x="65" y="76" width="964" height="478" stroke="#A1A1A1" stroke-width="0.4" stroke-dasharray="4 4"/>
<line x1="64.979" y1="163.3" x2="1029.02" y2="163.3" stroke="#A1A1A1" stroke-width="0.4" stroke-dasharray="4 4"/>
<line x1="65" y1="248.8" x2="1029.04" y2="248.8" stroke="#A1A1A1" stroke-width="0.4" stroke-dasharray="4 4"/>
<line x1="65" y1="248.8" x2="1029.04" y2="248.8" stroke="#A1A1A1" stroke-width="0.4" stroke-dasharray="4 4"/>
<line x1="190.8" y1="629.045" x2="190.8" y2="-2.35411e-05" stroke="#A1A1A1" stroke-width="0.4" stroke-dasharray="4 4"/>
<line x1="318.8" y1="629.045" x2="318.8" y2="-2.35411e-05" stroke="#A1A1A1" stroke-width="0.4" stroke-dasharray="4 4"/>
<line x1="879.8" y1="629.045" x2="879.8" y2="-2.35411e-05" stroke="#A1A1A1" stroke-width="0.4" stroke-dasharray="4 4"/>
<rect x="20" y="40" width="108" height="71" stroke="#A1A1A1" stroke-width="0.4" stroke-dasharray="4 4"/>
<circle cx="1029" cy="76" r="57.8" stroke="#A1A1A1" stroke-width="0.4" stroke-dasharray="4 4"/>
<path d="M61.0308 495.143L63.0103 491.714L63.1835 491.814L64 490.4L64.8165 491.814L64.9897 491.714L66.9692 495.143L66.796 495.243L68.7755 498.671L68.9487 498.571L70.9282 502L70.755 502.1L72.7345 505.529L72.9077 505.429L74.8872 508.857L74.714 508.957L76.6935 512.386L76.8667 512.286L78.8461 515.714L78.6729 515.814L80.6524 519.243L80.8256 519.143L82.8051 522.571L82.6319 522.671L84.6114 526.1L84.7846 526L86.7641 529.429L86.5909 529.529L88.5704 532.957L88.7436 532.857L90.7231 536.286L90.5499 536.386L92.5294 539.814L92.7026 539.714L94.682 543.143L94.5088 543.243L96.4883 546.671L96.6615 546.571L98.641 550L98.4678 550.1L100.447 553.529L100.621 553.429L102.6 556.857L102.427 556.957L104.406 560.386L104.579 560.286L106.559 563.714L106.386 563.814L108.365 567.243L108.538 567.143L110.518 570.571L110.345 570.671L112.324 574.1L112.497 574L114.477 577.429L114.304 577.529L116.283 580.957L116.456 580.857L118.436 584.286L118.263 584.386L119.079 585.8H117.446V586H113.487V585.8H109.528V586H105.569V585.8H101.61V586H97.6513V585.8H93.6923V586H89.7333V585.8H85.7744V586H81.8154V585.8H77.8564V586H73.8974V585.8H69.9385V586H65.9795V585.8H62.0205V586H58.0615V585.8H54.1026V586H50.1436V585.8H46.1846V586H42.2256V585.8H38.2667V586H34.3077V585.8H30.3487V586H26.3898V585.8H22.4308V586H18.4718V585.8H14.5128V586H10.5539V585.8H8.92078L9.7373 584.386L9.5641 584.286L11.5436 580.857L11.7168 580.957L13.6963 577.529L13.5231 577.429L15.5026 574L15.6758 574.1L17.6553 570.671L17.482 570.571L19.4615 567.143L19.6347 567.243L21.6142 563.814L21.441 563.714L23.4205 560.286L23.5937 560.386L25.5732 556.957L25.4 556.857L27.3795 553.429L27.5527 553.529L29.5322 550.1L29.359 550L31.3385 546.571L31.5117 546.671L33.4912 543.243L33.318 543.143L35.2974 539.714L35.4706 539.814L37.4501 536.386L37.2769 536.286L39.2564 532.857L39.4296 532.957L41.4091 529.529L41.2359 529.429L43.2154 526L43.3886 526.1L45.3681 522.671L45.1949 522.571L47.1744 519.143L47.3476 519.243L49.3271 515.814L49.1539 515.714L51.1333 512.286L51.3065 512.386L53.286 508.957L53.1128 508.857L55.0923 505.429L55.2655 505.529L57.245 502.1L57.0718 502L59.0513 498.571L59.2245 498.671L61.204 495.243L61.0308 495.143Z" stroke="#A1A1A1" stroke-width="0.4" stroke-dasharray="4 4"/>
<path d="M1026.63 503.752L1027.88 499.917L1028.07 499.979L1028.5 498.647L1028.93 499.979L1029.12 499.917L1030.37 503.752L1030.18 503.814L1031.42 507.649L1031.62 507.587L1032.86 511.422L1032.67 511.484L1033.92 515.319L1034.11 515.257L1035.35 519.092L1035.16 519.154L1036.41 522.989L1036.6 522.927L1037.85 526.762L1037.66 526.824L1038.9 530.659L1039.09 530.597L1040.34 534.432L1040.15 534.494L1040.77 536.411L1040.82 536.55H1040.96H1042.98V536.35H1047.01V536.55H1051.04V536.35H1055.07V536.55H1059.11V536.35H1063.14V536.55H1067.17V536.35H1071.2V536.55H1075.24V536.35H1079.27V536.55H1080.67L1079.53 537.373L1079.65 537.535L1076.39 539.905L1076.27 539.743L1073.01 542.113L1073.13 542.275L1069.87 544.645L1069.75 544.483L1066.49 546.853L1066.6 547.015L1063.34 549.385L1063.22 549.223L1059.96 551.594L1060.08 551.755L1056.82 554.126L1056.7 553.964L1053.44 556.334L1053.55 556.496L1050.29 558.866L1050.18 558.704L1048.54 559.889L1048.43 559.974L1048.47 560.113L1049.09 562.03L1049.28 561.968L1050.53 565.803L1050.34 565.865L1051.59 569.7L1051.78 569.638L1053.02 573.473L1052.83 573.535L1054.08 577.37L1054.27 577.308L1055.51 581.143L1055.32 581.205L1056.57 585.04L1056.76 584.978L1058.01 588.813L1057.82 588.875L1059.06 592.71L1059.25 592.648L1060.5 596.483L1060.31 596.545L1060.74 597.877L1059.61 597.054L1059.49 597.215L1056.23 594.845L1056.35 594.683L1053.08 592.313L1052.97 592.475L1049.7 590.105L1049.82 589.943L1046.56 587.573L1046.44 587.735L1043.18 585.365L1043.3 585.203L1040.04 582.833L1039.92 582.995L1036.66 580.624L1036.77 580.463L1033.51 578.093L1033.39 578.254L1030.13 575.884L1030.25 575.722L1028.62 574.537L1028.5 574.452L1028.38 574.537L1026.75 575.722L1026.87 575.884L1023.61 578.254L1023.49 578.093L1020.23 580.463L1020.34 580.624L1017.08 582.995L1016.96 582.833L1013.7 585.203L1013.82 585.365L1010.56 587.735L1010.44 587.573L1007.18 589.943L1007.3 590.105L1004.03 592.475L1003.92 592.313L1000.65 594.683L1000.77 594.845L997.509 597.215L997.391 597.054L996.258 597.877L996.691 596.545L996.501 596.483L997.747 592.648L997.937 592.71L999.183 588.875L998.993 588.813L1000.24 584.978L1000.43 585.04L1001.68 581.205L1001.49 581.143L1002.73 577.308L1002.92 577.37L1004.17 573.535L1003.98 573.473L1005.22 569.638L1005.41 569.7L1006.66 565.865L1006.47 565.803L1007.72 561.968L1007.91 562.03L1008.53 560.113L1008.57 559.974L1008.46 559.889L1006.82 558.704L1006.71 558.866L1003.45 556.496L1003.56 556.334L1000.3 553.964L1000.18 554.126L996.921 551.755L997.038 551.594L993.776 549.223L993.659 549.385L990.396 547.015L990.514 546.853L987.252 544.483L987.134 544.645L983.872 542.275L983.989 542.113L980.727 539.743L980.61 539.905L977.347 537.535L977.465 537.373L976.332 536.55H977.733V536.35H981.765V536.55H985.797V536.35H989.829V536.55H993.862V536.35H997.894V536.55H1001.93V536.35H1005.96V536.55H1009.99V536.35H1014.02V536.55H1016.04H1016.18L1016.23 536.411L1016.85 534.494L1016.66 534.432L1017.91 530.597L1018.1 530.659L1019.34 526.824L1019.15 526.762L1020.4 522.927L1020.59 522.989L1021.84 519.154L1021.65 519.092L1022.89 515.257L1023.08 515.319L1024.33 511.484L1024.14 511.422L1025.38 507.587L1025.58 507.649L1026.82 503.814L1026.63 503.752Z" stroke="#A1A1A1" stroke-width="0.4" stroke-dasharray="4 4"/>
</svg>
